<svg aria-hidden="true" style="width:0;height:0;position:absolute;overflow:hidden" xmlns="http://www.w3.org/2000/svg"><defs><symbol id="icon-align-left" viewBox="0 0 32 32"><path stroke-linejoin="round" stroke-linecap="round" stroke-width="2.286" d="M22.666 13.334H4M28 8H4m24 10.666H4M22.666 24H4"/></symbol><symbol id="icon-arrow-narrow-right" viewBox="0 0 32 32"><path fill="none" stroke="#eac645" style="stroke:var(--color1,#eac645)" stroke-linejoin="round" stroke-linecap="round" stroke-width="3.2" d="M5.333 16h21.334m0 0-8-8m8 8-8 8"/></symbol><symbol id="icon-dump" viewBox="0 0 32 32"><path fill="none" stroke="#fff" style="stroke:var(--color2,#fff)" stroke-linejoin="round" stroke-linecap="round" stroke-width="2.909" d="M12 4h8M4 8h24m-2.666 0-.935 14.026c-.141 2.103-.211 3.156-.665 3.953a4.031 4.031 0 0 1-1.707 1.61l-.023.01c-.828.4-1.881.4-3.99.4h-4.026c-2.109 0-3.162 0-3.99-.4a4.028 4.028 0 0 1-1.721-1.601l-.01-.019c-.454-.797-.524-1.85-.665-3.953L6.667 8m6.667 6v6.666M18.666 14v6.666"/></symbol><symbol id="icon-lock-02" viewBox="0 0 32 32"><path stroke-linejoin="round" stroke-linecap="round" stroke-width="2.286" d="M22.666 14.666v-4a6.666 6.666 0 0 0-13.332 0v4M10.4 28h11.2c2.24 0 3.36 0 4.216-.435a4.03 4.03 0 0 0 1.738-1.726l.011-.022c.435-.856.435-1.976.435-4.216v-.534c0-2.24 0-3.36-.435-4.216a4.03 4.03 0 0 0-1.726-1.738l-.022-.011c-.856-.434-1.976-.434-4.216-.434h-11.2c-2.24 0-3.36 0-4.216.434a4.03 4.03 0 0 0-1.738 1.726l-.011.022c-.435.857-.435 1.977-.435 4.217v.533c0 2.24 0 3.36.435 4.216a4.03 4.03 0 0 0 1.726 1.738l.022.011C7.04 28 8.16 28 10.4 28z"/></symbol><symbol id="icon-mail-02" viewBox="0 0 32 32"><path stroke-linejoin="round" stroke-linecap="round" stroke-width="2.286" d="m28.666 24-8.857-8m-7.618 0-8.857 8M2.666 9.334l10.887 7.621c.881.617 1.322.926 1.802 1.045.423.106.866.106 1.289 0 .48-.119.921-.427 1.802-1.045l10.887-7.621M9.066 26.666h13.867c2.24 0 3.36 0 4.216-.435a4.03 4.03 0 0 0 1.738-1.726l.011-.022c.434-.855.434-1.976.434-4.216v-8.533c0-2.24 0-3.36-.434-4.217a4.027 4.027 0 0 0-1.726-1.737l-.022-.011c-.857-.435-1.977-.435-4.217-.435H9.068c-2.24 0-3.36 0-4.216.435a4.03 4.03 0 0 0-1.738 1.726l-.01.022c-.434.855-.434 1.975-.434 4.216v8.533c0 2.24 0 3.36.434 4.217A4.027 4.027 0 0 0 4.83 26.22l.022.011c.856.435 1.977.435 4.217.435z"/></symbol><symbol id="icon-user-fill" viewBox="0 0 32 32"><path fill="#4f2ee8" style="fill:var(--color3,#4f2ee8)" d="M5.334 29.334c.107-5.81 4.841-10.478 10.666-10.478s10.56 4.669 10.666 10.468v.01H5.334zm10.666-12h-.002A7.998 7.998 0 0 1 8 9.336v-.004a7.998 7.998 0 0 1 7.998-7.998h.004A7.998 7.998 0 0 1 24 9.332v.004a7.998 7.998 0 0 1-7.998 7.998H16z"/></symbol><symbol id="icon-Vector" viewBox="0 0 60 32"><path fill="#fff" style="fill:var(--color2,#fff)" d="M3.168 3h53.668L32.712 30.268a3.62 3.62 0 0 1-2.71 1.272H30a3.615 3.615 0 0 1-2.704-1.267l-.004-.005L3.168 3z"/></symbol><symbol id="icon-Vector-2" viewBox="0 0 55 32"><path fill="#fff" style="fill:var(--color2,#fff)" d="M1.091 25.309 25.527.8c.291-.291.605-.495.945-.617S27.176 0 27.563 0s.751.061 1.091.183c.371.139.687.349.945.616L29.6.8l24.509 24.509c.678.678 1.018 1.527 1.018 2.545s-.364 1.891-1.091 2.618a3.486 3.486 0 0 1-2.535 1.091h-.011.001-.01a3.482 3.482 0 0 1-2.534-1.089l-.001-.002L27.564 9.09 6.182 30.472c-.678.678-1.513 1.018-2.508 1.018s-1.856-.364-2.583-1.091A3.486 3.486 0 0 1 0 27.864v-.011.001-.01c0-.998.418-1.897 1.089-2.534l.002-.001z"/></symbol><symbol id="icon-x-close" viewBox="0 0 32 32"><path stroke-linejoin="round" stroke-linecap="round" stroke-width="3.429" d="M24 8 8 24M8 8l16 16"/></symbol></defs></svg>